<?xml version="1.0" encoding="UTF-8"?>
<svg version="1.1" xmlns="http://www.w3.org/2000/svg" width="965" height="258">
<path d="M0 0 C2.80252457 1.72365516 4.81255624 2.98735988 5.75561523 6.24291992 C5.92513516 8.73491554 5.86720664 11.12735182 5.72143555 13.62060547 C5.70661133 14.43464844 5.69178711 15.24869141 5.67651367 16.08740234 C5.52847757 21.00296003 4.95772588 25.7913277 4.2253418 30.65185547 C3.02505826 38.66408827 2.34779566 46.68687048 1.72631836 54.76049805 C1.53387495 57.24638823 1.33120208 59.73130321 1.12768555 62.21630859 C-0.73862444 78.93822763 -0.73862444 78.93822763 2.15893555 95.18310547 C4.53199133 95.60091426 4.53199133 95.60091426 7.15893555 95.18310547 C11.77275805 89.54398908 12.37238866 82.13407454 12.97143555 75.12060547 C14.05669372 64.58470184 16.06703321 54.58819511 24.15893555 47.18310547 C25.01551758 46.29171875 25.01551758 46.29171875 25.8894043 45.38232422 C27.27467482 43.94505963 28.71572155 42.56217663 30.15893555 41.18310547 C30.81893555 41.18310547 31.47893555 41.18310547 32.15893555 41.18310547 C32.15893555 40.52310547 32.15893555 39.86310547 32.15893555 39.18310547 C35.12893555 38.68810547 35.12893555 38.68810547 38.15893555 38.18310547 C38.15893555 37.52310547 38.15893555 36.86310547 38.15893555 36.18310547 C44.24042965 35.24358446 49.21466099 35.05564435 55.15112305 36.80810547 C57.47054267 37.24130446 58.91178782 36.81059762 61.15893555 36.18310547 C61.12751465 35.23467773 61.09609375 34.28625 61.0637207 33.30908203 C60.96132856 29.78281764 60.88618679 26.25813619 60.8293457 22.73095703 C60.79920877 21.20596364 60.75828947 19.6811431 60.70629883 18.15673828 C60.63333062 15.96196906 60.59945415 13.76949296 60.57299805 11.57373047 C60.54203033 10.89441467 60.51106262 10.21509888 60.47915649 9.51519775 C60.4777832 7.57470703 60.4777832 7.57470703 61.15893555 4.18310547 C66.17722916 -0.03723982 70.72560366 -1.08539753 77.15893555 -0.81689453 C80.48538199 0.43052289 81.67687326 1.228512 83.27026367 4.38378906 C86.70553898 15.2049063 83.69114198 29.41166146 82.65893555 40.55810547 C82.37277606 43.69049555 82.09102562 46.82322696 81.81518555 49.95654297 C81.75028931 50.69300049 81.68539307 51.42945801 81.61853027 52.18823242 C81.19418108 57.21434264 81.0729796 62.14393789 81.15893555 67.18310547 C81.01209238 68.60196392 80.84706983 70.01912961 80.65893555 71.43310547 C79.67466456 79.54977491 79.22832086 87.45693946 82.15893555 95.18310547 C83.80893555 95.18310547 85.45893555 95.18310547 87.15893555 95.18310547 C87.63331055 94.08998047 88.10768555 92.99685547 88.59643555 91.87060547 C88.86327148 91.25572266 89.13010742 90.64083984 89.4050293 90.00732422 C90.61962007 87.06839213 91.15721685 85.09201436 91.09643555 81.87060547 C91.02844751 69.51944596 93.32738198 57.91182112 101.59643555 48.37060547 C102.44206055 47.64873047 103.28768555 46.92685547 104.15893555 46.18310547 C104.62428711 45.62107422 105.08963867 45.05904297 105.5690918 44.47998047 C110.62839619 38.56295616 116.55567601 36.38919594 124.15893555 35.18310547 C129.19710737 35.03481843 134.16362955 35.54746487 139.15893555 36.18310547 C139.48893555 37.17310547 139.81893555 38.16310547 140.15893555 39.18310547 C140.75706055 39.32748047 141.35518555 39.47185547 141.97143555 39.62060547 C146.07091674 40.67475777 147.94162226 43.90705886 150.47143555 47.12060547 C153.37707483 52.51513896 152.44154531 58.40793208 151.15893555 64.18310547 C147.56772967 73.19197245 141.3223546 78.30695588 132.78393555 82.43310547 C128.05295009 84.41467006 123.20863275 85.3819009 118.15893555 86.18310547 C117.83511134 89.34898601 117.83511134 89.34898601 120.28393555 91.68310547 C125.51450813 96.23142945 129.7060268 97.77454503 136.5690918 97.52685547 C143.57334596 96.59718071 148.58700347 93.6019899 152.8815918 88.04638672 C157.6405885 81.10436401 160.45184722 75.38107372 160.21362305 66.83544922 C160.1883437 65.41163057 160.16362081 63.98780196 160.1394043 62.56396484 C160.08969939 60.33634838 160.03359648 58.10925917 159.96704102 55.88208008 C159.90657199 53.72066945 159.8710897 51.5599363 159.83862305 49.39794922 C159.78810791 47.46616821 159.78810791 47.46616821 159.73657227 45.49536133 C160.15893555 42.18310547 160.15893555 42.18310547 162.01733398 39.76538086 C165.98974473 36.83045222 170.45252776 37.52243752 175.15893555 38.18310547 C178.72143555 39.74560547 178.72143555 39.74560547 181.15893555 42.18310547 C182.53393555 45.93310547 182.53393555 45.93310547 183.15893555 49.18310547 C183.53018555 48.66748047 183.90143555 48.15185547 184.28393555 47.62060547 C184.90268555 46.81623047 185.52143555 46.01185547 186.15893555 45.18310547 C186.59592773 44.59271484 187.03291992 44.00232422 187.4831543 43.39404297 C191.4038391 38.39285448 191.4038391 38.39285448 195.53393555 37.24560547 C196.40018555 37.22498047 197.26643555 37.20435547 198.15893555 37.18310547 C198.15893555 36.52310547 198.15893555 35.86310547 198.15893555 35.18310547 C201.81478108 34.26750909 204.53285124 34.18056586 208.22143555 34.93310547 C209.47633789 35.17287109 209.47633789 35.17287109 210.7565918 35.41748047 C213.41703591 36.26536184 215.10322693 37.30305787 217.15893555 39.18310547 C217.15893555 39.84310547 217.15893555 40.50310547 217.15893555 41.18310547 C218.14893555 41.51310547 219.13893555 41.84310547 220.15893555 42.18310547 C221.20454633 48.92148607 221.57623666 54.99941773 218.15893555 61.18310547 C214.71000101 63.9422531 211.64827989 66.07087186 207.15893555 66.18310547 C203.97143555 65.30810547 203.97143555 65.30810547 201.15893555 63.18310547 C200.05644306 60.23093365 199.53847347 57.30447767 199.15893555 54.18310547 C195.69407848 54.80343023 195.69407848 54.80343023 192.15893555 56.18310547 C190.99252378 58.40765807 190.99252378 58.40765807 190.15893555 61.18310547 C189.75674805 62.22982422 189.35456055 63.27654297 188.94018555 64.35498047 C184.62814271 76.39714887 182.90634494 88.14646883 183.21362305 100.96435547 C183.09625856 105.72600044 182.59557298 110.74646804 179.15893555 114.18310547 C176.26049805 114.44873047 176.26049805 114.44873047 172.78393555 114.43310547 C171.64182617 114.43826172 170.4997168 114.44341797 169.32299805 114.44873047 C164.55018306 114.0480497 164.55018306 114.0480497 162.15893555 112.18310547 C161.54956055 110.01904297 161.54956055 110.01904297 161.40893555 107.55810547 C161.3522168 106.74083984 161.29549805 105.92357422 161.23706055 105.08154297 C161.2112793 104.45505859 161.18549805 103.82857422 161.15893555 103.18310547 C159.84321952 103.43785686 158.53133179 103.71244688 157.22143555 103.99560547 C156.49053711 104.14642578 155.75963867 104.29724609 155.0065918 104.45263672 C154.39686523 104.69369141 153.78713867 104.93474609 153.15893555 105.18310547 C152.82893555 106.17310547 152.49893555 107.16310547 152.15893555 108.18310547 C143.26299635 115.12276174 129.63058721 115.98033475 118.78393555 114.80810547 C110.35864253 113.04413227 104.00310988 107.21667434 98.15893555 101.18310547 C97.49893555 101.84310547 96.83893555 102.50310547 96.15893555 103.18310547 C95.16893555 103.67810547 95.16893555 103.67810547 94.15893555 104.18310547 C93.84956055 104.84310547 93.54018555 105.50310547 93.22143555 106.18310547 C92.15893555 108.18310547 92.15893555 108.18310547 89.15893555 109.18310547 C89.15893555 109.84310547 89.15893555 110.50310547 89.15893555 111.18310547 C83.10271639 113.87475843 77.80443533 115.1977707 71.15893555 114.18310547 C67.78393555 112.43310547 67.78393555 112.43310547 65.15893555 110.18310547 C64.39581055 109.54373047 63.63268555 108.90435547 62.84643555 108.24560547 C60.90836127 105.87684802 60.49338534 104.1931536 60.15893555 101.18310547 C59.49893555 101.84310547 58.83893555 102.50310547 58.15893555 103.18310547 C47.98066257 112.18310547 47.98066257 112.18310547 45.15893555 112.18310547 C45.15893555 112.84310547 45.15893555 113.50310547 45.15893555 114.18310547 C38.72393555 114.67810547 38.72393555 114.67810547 32.15893555 115.18310547 C32.15893555 114.52310547 32.15893555 113.86310547 32.15893555 113.18310547 C31.31331055 113.16248047 30.46768555 113.14185547 29.59643555 113.12060547 C25.28614667 111.94507214 23.68728362 109.92804473 20.86987305 106.58154297 C19.27779819 104.9660252 19.27779819 104.9660252 17.22924805 105.25341797 C14.6771475 106.39945557 12.80481845 107.88997044 10.65893555 109.68310547 C5.010961 114.40264584 0.33295178 114.59755995 -6.9230957 114.52685547 C-11.46697402 113.99156592 -12.89626943 112.65645345 -15.84106445 109.18310547 C-17.65356445 105.99560547 -17.65356445 105.99560547 -18.84106445 103.18310547 C-19.17106445 102.52310547 -19.50106445 101.86310547 -19.84106445 101.18310547 C-20.52168945 101.88435547 -21.20231445 102.58560547 -21.90356445 103.30810547 C-33.06043395 114.46497496 -33.06043395 114.46497496 -41.52856445 114.62060547 C-49.85374669 114.5004482 -54.03942515 111.99546352 -59.84106445 106.37060547 C-60.50106445 105.64873047 -61.16106445 104.92685547 -61.84106445 104.18310547 C-64.30336442 104.90055903 -64.30336442 104.90055903 -66.84106445 106.18310547 C-67.52476895 107.50778293 -68.19070631 108.84174179 -68.84106445 110.18310547 C-74.91466893 114.61519522 -82.52819217 115.24679598 -89.84106445 114.18310547 C-94.57181708 112.01516646 -97.23910586 109.25109651 -99.77856445 104.74560547 C-100.83284426 101.2106673 -101.41066701 97.84148375 -101.84106445 94.18310547 C-102.17106445 93.52310547 -102.50106445 92.86310547 -102.84106445 92.18310547 C-102.86892499 90.69220517 -102.82989411 89.19973421 -102.75512695 87.71044922 C-102.71129883 86.81003906 -102.6674707 85.90962891 -102.62231445 84.98193359 C-102.57075195 84.03769531 -102.51918945 83.09345703 -102.46606445 82.12060547 C-102.42223633 81.2034375 -102.3784082 80.28626953 -102.33325195 79.34130859 C-102.11336022 75.03204147 -101.81924332 70.76333874 -101.29418945 66.47998047 C-100.66796972 61.21680848 -100.91215161 56.02260752 -101.09887695 50.73388672 C-100.74594214 45.87301181 -99.32806044 42.53889593 -95.71606445 39.24560547 C-90.59055539 37.3513956 -85.81270804 38.30215834 -80.90356445 40.49560547 C-78.60332728 42.3776177 -77.87351604 43.41531277 -76.84106445 46.18310547 C-76.78173828 49.18481445 -76.78173828 49.18481445 -77.0480957 52.67919922 C-77.14026367 53.96117187 -77.23243164 55.24314453 -77.32739258 56.56396484 C-77.43585189 57.91619964 -77.54457694 59.26841314 -77.65356445 60.62060547 C-77.74959961 61.92449219 -77.84563477 63.22837891 -77.94458008 64.57177734 C-78.32425324 69.68589844 -78.71108529 74.79717651 -79.18994141 79.90307617 C-79.29395264 81.05251709 -79.39796387 82.20195801 -79.50512695 83.38623047 C-79.60390137 84.40233398 -79.70267578 85.4184375 -79.80444336 86.46533203 C-79.85755347 90.40681064 -78.8028773 92.80878737 -76.84106445 96.18310547 C-74.29739059 95.8322539 -73.09429918 95.44919475 -71.30200195 93.56591797 C-69.43409685 90.51933478 -68.9282788 87.82027559 -68.27856445 84.30810547 C-68.15199463 83.6482666 -68.0254248 82.98842773 -67.89501953 82.30859375 C-67.07349845 77.90650062 -66.52757342 73.50926543 -66.02856445 69.05810547 C-64.59924262 58.79720154 -61.00837794 49.94431448 -52.6574707 43.54248047 C-52.05805664 43.09388672 -51.45864258 42.64529297 -50.84106445 42.18310547 C-50.11918945 41.41998047 -49.39731445 40.65685547 -48.65356445 39.87060547 C-44.86219176 36.34070676 -40.4182885 35.83475592 -35.40356445 35.43310547 C-34.31172852 35.33513672 -33.21989258 35.23716797 -32.0949707 35.13623047 C-28.61203987 35.18640474 -26.11828586 36.08318522 -22.84106445 37.18310547 C-20.70609093 36.78835871 -20.70609093 36.78835871 -18.84106445 36.18310547 C-18.84630127 35.39661621 -18.85153809 34.61012695 -18.85693359 33.79980469 C-18.87778455 30.21924648 -18.89075046 26.63870109 -18.90356445 23.05810547 C-18.91194336 21.82060547 -18.92032227 20.58310547 -18.92895508 19.30810547 C-18.93217773 18.10927734 -18.93540039 16.91044922 -18.9387207 15.67529297 C-18.94395752 14.57556152 -18.94919434 13.47583008 -18.95458984 12.34277344 C-18.84112578 9.18481224 -18.53853546 6.26554061 -17.84106445 3.18310547 C-13.05374327 -0.65907934 -5.72418456 -2.53986494 0 0 Z M-38.84106445 56.18310547 C-43.06677696 63.39251364 -44.02223466 69.23522407 -44.02856445 77.49560547 C-44.04081055 78.32511719 -44.05305664 79.15462891 -44.06567383 80.00927734 C-44.07778187 85.12290813 -43.62832406 89.37363952 -41.84106445 94.18310547 C-39.78678457 96.49917057 -39.78678457 96.49917057 -36.84106445 97.18310547 C-32.05290976 95.89995024 -32.05290976 95.89995024 -28.79418945 92.41357422 C-28.4796582 91.67751953 -28.16512695 90.94146484 -27.84106445 90.18310547 C-27.42727539 89.30396484 -27.01348633 88.42482422 -26.5871582 87.51904297 C-23.70829505 81.00507799 -22.01472122 75.3188197 -21.84106445 68.18310547 C-21.51106445 68.18310547 -21.18106445 68.18310547 -20.84106445 68.18310547 C-20.9012994 66.0989764 -20.99014766 64.01566112 -21.09106445 61.93310547 C-21.1374707 60.77294922 -21.18387695 59.61279297 -21.23168945 58.41748047 C-21.9403058 54.65636295 -22.78341775 53.42610385 -25.84106445 51.18310547 C-32.18888889 50.27627341 -34.8420163 50.85104127 -38.84106445 56.18310547 Z M41.15893555 55.18310547 C39.54312287 58.04179466 39.54312287 58.04179466 38.40893555 61.18310547 C38.0015918 62.21435547 37.59424805 63.24560547 37.17456055 64.30810547 C34.23022357 72.64284399 33.5700985 83.55655359 36.34643555 92.05810547 C37.91174031 95.25440591 37.91174031 95.25440591 40.53393555 96.87060547 C43.17286104 97.38298956 43.17286104 97.38298956 45.59643555 96.30810547 C53.38742622 89.84728393 56.24213627 81.99946792 57.90893555 72.24560547 C58.36376192 69.14364105 58.36376192 69.14364105 57.15893555 66.18310547 C57.81893555 66.18310547 58.47893555 66.18310547 59.15893555 66.18310547 C59.0508664 61.12350463 58.9322309 57.32030452 56.03393555 53.05810547 C50.15670527 49.2251292 45.97237337 50.59194423 41.15893555 55.18310547 Z M120.15893555 54.18310547 C115.44708217 60.35725817 114.85912217 66.68777106 115.15893555 74.18310547 C119.19215317 72.9637606 122.70163034 71.6235562 126.15893555 69.18310547 C126.15893555 68.52310547 126.15893555 67.86310547 126.15893555 67.18310547 C126.77768555 66.93560547 127.39643555 66.68810547 128.03393555 66.43310547 C130.64891799 64.8948805 131.226018 64.05960123 132.15893555 61.18310547 C132.494599 57.42367482 132.65671544 55.06553346 130.78393555 51.74560547 C127.26881354 48.36568046 123.49657231 51.80018806 120.15893555 54.18310547 Z " fill="#040404" transform="translate(280.841064453125,74.81689453125)"/>
<path d="M0 0 C2.63150043 3.94725065 1.8170559 5.39477582 1 10 C0.7413067 12.35912849 0.50894133 14.71973366 0.28125 17.08203125 C0 19 0 19 -1 21 C-0.071875 20.835 0.85625 20.67 1.8125 20.5 C5.12195738 20.04655696 8.41162884 19.80720255 11.75 19.6875 C13.13445312 19.63142578 13.13445312 19.63142578 14.546875 19.57421875 C17 20 17 20 18.8125 21.765625 C20.71937649 25.35356366 20.25613719 27.96583925 20 32 C19 35 19 35 16.95703125 36.1484375 C13.18197744 37.23557321 9.5974871 37.45727937 5.6875 37.625 C4.57665039 37.68300781 4.57665039 37.68300781 3.44335938 37.7421875 C1.62928691 37.83581705 -0.18532116 37.91896851 -2 38 C-1.98839844 38.75023437 -1.97679687 39.50046875 -1.96484375 40.2734375 C-1.92140863 45.20022079 -1.92712793 50.03984721 -2.5 54.9375 C-3.40959893 62.98095343 -3.50261199 71.03377136 -2 79 C-1.34 79 -0.68 79 0 79 C0.391875 79.495 0.78375 79.99 1.1875 80.5 C3.04629665 82.31753694 3.04629665 82.31753694 6.375 82.375 C11.67585192 81.82663601 13.90361107 80.09638893 17.625 76.375 C20.56951361 72.69668016 21.77260108 68.49048387 23 64 C23.66 64 24.32 64 25 64 C24.773125 63.46375 24.54625 62.9275 24.3125 62.375 C23.85079518 58.86604335 25.16859862 56.94332364 27 54 C28.485 53.505 28.485 53.505 30 53 C30 53.66 30 54.32 30 55 C30.61875 55.226875 31.2375 55.45375 31.875 55.6875 C34.70277651 57.43406784 35.05607894 58.84614053 36 62 C35.67246887 68.34474594 33.82984536 74.34030929 31 80 C30.66226562 80.73089844 30.32453125 81.46179688 29.9765625 82.21484375 C27.36462019 87.48255291 24.58264333 90.56859435 19.671875 93.80859375 C17.84951812 94.91024304 17.84951812 94.91024304 17 97 C9.95811364 100.45190508 4.30536319 101.29798985 -3.5625 100.25 C-4.84253906 100.09015625 -6.12257813 99.9303125 -7.44140625 99.765625 C-12.37857912 98.7034012 -15.72923711 96.55317212 -19.3125 93.0625 C-19.82425781 92.57910156 -20.33601562 92.09570312 -20.86328125 91.59765625 C-22 90 -22 90 -22 86 C-25.81430239 86.51544627 -27.42061082 87.20566172 -30 90 C-34.55555556 93 -34.55555556 93 -37 93 C-37 93.99 -37 94.98 -37 96 C-43.95134419 99.5713328 -50.43632039 100.38638642 -58.125 100.375 C-58.9593457 100.37628906 -59.79369141 100.37757813 -60.65332031 100.37890625 C-74.41898735 100.14035196 -74.41898735 100.14035196 -79.2421875 96.140625 C-80.11230469 95.08101562 -80.11230469 95.08101562 -81 94 C-82.68799351 92.55915819 -84.39705189 91.1426746 -86.125 89.75 C-87.42824219 88.69039062 -87.42824219 88.69039062 -88.7578125 87.609375 C-90.81080074 85.80562967 -90.81080074 85.80562967 -93 86 C-93.268125 86.61875 -93.53625 87.2375 -93.8125 87.875 C-95 90 -95 90 -98 92 C-98.99 92 -99.98 92 -101 92 C-101.25652344 92.62648438 -101.51304687 93.25296875 -101.77734375 93.8984375 C-103.506538 96.87066276 -105.78488496 97.39887608 -108.98046875 98.328125 C-122.29798999 101.29140269 -132.96437442 101.9995413 -145.3125 95.3125 C-151.96132443 91.0593631 -155.89943407 85.17755318 -159 78 C-159.5960501 75.22413889 -159.9092379 72.44846679 -160.1875 69.625 C-160.26935547 68.88894531 -160.35121094 68.15289062 -160.43554688 67.39453125 C-160.63392556 65.59745375 -160.81840577 63.79885107 -161 62 C-164.28696233 61.20046862 -165.71023192 60.90341064 -169 62 C-169.144375 63.19625 -169.28875 64.3925 -169.4375 65.625 C-169.87039343 69.1005158 -170.39616256 72.54950034 -171 76 C-171.66 76 -172.32 76 -173 76 C-173.20625 76.969375 -173.4125 77.93875 -173.625 78.9375 C-175.93401814 87.0108755 -181.81333066 94.17643231 -188.6875 98.8125 C-194.73353798 100.97994758 -200.54313297 100.98287622 -206.4375 98.3125 C-211.9187743 95.153613 -213.33438639 90.44110976 -215.15625 84.671875 C-215.94135655 82.62817925 -215.94135655 82.62817925 -219 82 C-219.103125 83.093125 -219.20625 84.18625 -219.3125 85.3125 C-220.01991704 89.10682774 -220.24469282 89.66858623 -223 92 C-223.45375 92.825 -223.9075 93.65 -224.375 94.5 C-227.09561759 98.68556553 -229.92229294 99.72600668 -234.6875 100.9375 C-239.83077419 101.42733564 -244.65172533 99.69140421 -249 97 C-249.69714505 95.68234641 -250.36764356 94.34994354 -251 93 C-251.99 92.67 -252.98 92.34 -254 92 C-255.18371438 89.40968355 -256.15250872 86.93575431 -257.0625 84.25 C-257.31837891 83.55261719 -257.57425781 82.85523438 -257.83789062 82.13671875 C-261.68056264 71.09274109 -262.32854438 59.7924323 -262.25 48.1875 C-262.25773438 47.02541016 -262.26546875 45.86332031 -262.2734375 44.66601562 C-262.2593536 38.47262074 -262.13368201 32.85218891 -260 27 C-256.79961359 23.8805429 -252.71099461 23.08580969 -248.375 22.5625 C-244.68515293 23.04081351 -242.26546721 24.27579673 -239 26 C-239.01047363 27.13953125 -239.02094727 28.2790625 -239.03173828 29.453125 C-239.0681339 33.7097658 -239.09097125 37.96639304 -239.10986328 42.22314453 C-239.11987648 44.06008218 -239.13349102 45.89700407 -239.15087891 47.73388672 C-239.17533422 50.38513089 -239.18653013 53.036163 -239.1953125 55.6875 C-239.20563507 56.49928711 -239.21595764 57.31107422 -239.22659302 58.14746094 C-239.22761502 63.4258928 -238.58592137 67.95066017 -237 73 C-236.34 73.66 -235.68 74.32 -235 75 C-235.33 75.99 -235.66 76.98 -236 78 C-236 78.99 -236 79.98 -236 81 C-232.8781731 80.34623166 -232.8781731 80.34623166 -231.9375 77.953125 C-227.58874851 65.74645886 -227.58874851 65.74645886 -226.00390625 52.99609375 C-225.99967467 49.75047199 -225.47179734 47.02023343 -224.6875 43.875 C-224.44386719 42.86179688 -224.20023438 41.84859375 -223.94921875 40.8046875 C-222.98206837 37.94701683 -222.06861509 36.18271137 -220 34 C-214.17533081 31.86428796 -210.93689299 31.78821634 -205 34 C-204.01 34.33 -203.02 34.66 -202 35 C-202.01160156 35.76441406 -202.02320313 36.52882812 -202.03515625 37.31640625 C-202.38925806 59.95286565 -202.38925806 59.95286565 -195 81 C-194.01 81 -193.02 81 -192 81 C-191.5978125 79.515 -191.5978125 79.515 -191.1875 78 C-190.4478689 75.35621224 -189.59191664 73.04780549 -188.5 70.5 C-186.26460186 64.5622237 -183.26636828 54.93005497 -185.921875 48.91015625 C-187.41284172 47.20191416 -187.41284172 47.20191416 -190 45 C-192.32895349 39.89848283 -193.09049322 34.39781729 -191.359375 29.00390625 C-190.34618396 26.61496071 -189.16005891 24.32011781 -188 22 C-187.01 22 -186.02 22 -185 22 C-185 21.34 -185 20.68 -185 20 C-179.33690164 19.39754273 -175.72398099 20.58502654 -170.82421875 23.48828125 C-169 25 -169 25 -167.9375 28.3125 C-167.958125 29.199375 -167.97875 30.08625 -168 31 C-167.34 31 -166.68 31 -166 31 C-166 36.28 -166 41.56 -166 47 C-163.69 47 -161.38 47 -159 47 C-158.6596875 46.21496094 -158.319375 45.42992187 -157.96875 44.62109375 C-154.65794826 37.44475488 -151.39136381 32.64473605 -145 28 C-144.38382813 27.50628906 -143.76765625 27.01257813 -143.1328125 26.50390625 C-136.74815619 22.001905 -131.85981599 21.58343768 -124.25 21.75 C-122.81333984 21.75773437 -122.81333984 21.75773437 -121.34765625 21.765625 C-114.30992965 21.84503517 -114.30992965 21.84503517 -112 23 C-112 23.66 -112 24.32 -112 25 C-110.68 25.33 -109.36 25.66 -108 26 C-108 26.66 -108 27.32 -108 28 C-107.34 28 -106.68 28 -106 28 C-106 28.66 -106 29.32 -106 30 C-105.34 30 -104.68 30 -104 30 C-100.84554399 36.7126824 -100.96095514 44.50843267 -102.6171875 51.66796875 C-105.7120567 59.62424752 -112.3157985 64.69367511 -119.921875 68.15234375 C-131.13522538 72.72621035 -131.13522538 72.72621035 -136 71 C-131.5808881 78.80608804 -131.5808881 78.80608804 -124 83 C-115.71802676 83.41838984 -108.6320084 82.09602377 -102 77 C-96.94313698 71.94313698 -95.91951967 66.12476576 -95.06298828 59.27392578 C-93.62437418 47.96026947 -90.90834068 38.76624572 -82 31 C-81.34 30.175 -80.68 29.35 -80 28.5 C-73.54798292 23.1233191 -66.16811899 20.4780684 -57.77709961 21.06982422 C-50.70749303 21.89085342 -44.90034854 23.55978255 -40 29 C-39.01 30.485 -39.01 30.485 -38 32 C-37.34 30.68 -36.68 29.36 -36 28 C-35.01 28 -34.02 28 -33 28 C-33.33 27.01 -33.66 26.02 -34 25 C-33 23.5 -33 23.5 -31 22 C-28.28153765 21.72654521 -25.74322801 21.86508715 -23 22 C-22.92652344 20.58847656 -22.92652344 20.58847656 -22.8515625 19.1484375 C-22.77679687 17.90320313 -22.70203125 16.65796875 -22.625 15.375 C-22.52058594 13.53035156 -22.52058594 13.53035156 -22.4140625 11.6484375 C-22.00896227 8.07896942 -21.50342211 5.26214232 -20 2 C-14.03640897 -2.49563016 -6.76825786 -2.90254135 0 0 Z M-35 30 C-34 32 -34 32 -34 32 Z M-35 35 C-36.39156484 36.16277032 -36.39156484 36.16277032 -36.09765625 39.37890625 C-36.09098369 40.77347077 -36.07902532 42.16801743 -36.0625 43.5625 C-36.05798828 44.27341797 -36.05347656 44.98433594 -36.04882812 45.71679688 C-36.03700864 47.47790013 -36.01907263 49.23896036 -36 51 C-36.66 51 -37.32 51 -38 51 C-39.25835264 52.69099826 -39.25835264 52.69099826 -40.4375 54.8125 C-41.72241258 57.02383858 -42.83498239 58.83731205 -44.66015625 60.63671875 C-46.23364982 61.91915867 -46.23364982 61.91915867 -46 64 C-46.52207031 64.17015625 -47.04414062 64.3403125 -47.58203125 64.515625 C-52.90959657 66.26970955 -58.17379683 68.15327424 -63.421875 70.1328125 C-65.9375754 70.97900263 -68.38879695 71.53975198 -71 72 C-69.46577771 76.60266687 -67.65465458 79.59140777 -63.27734375 81.9140625 C-57.38543504 84.42075925 -51.71076484 85.14674983 -45.53515625 83.23828125 C-41.24520553 81.47919287 -38.52717546 79.99027704 -36 76 C-35.05447266 75.57654297 -35.05447266 75.57654297 -34.08984375 75.14453125 C-29.41344651 72.58343893 -27.49359624 66.35738967 -25.75 61.5625 C-24.03165007 53.40033784 -23.85768472 45.31753775 -24 37 C-25.81114432 36.63896464 -27.62396823 36.28634496 -29.4375 35.9375 C-30.44683594 35.74027344 -31.45617187 35.54304688 -32.49609375 35.33984375 C-33.73552734 35.17162109 -33.73552734 35.17162109 -35 35 Z M-134 42 C-136.74486339 46.59022763 -137.45358468 51.75441297 -138 57 C-133.91931839 58.16590903 -131.75885425 57.97339848 -128 56 C-123.41651975 53.05347698 -121.71576115 50.14728346 -120 45 C-119.41511438 42.37124598 -119.41511438 42.37124598 -120 40 C-121.7712618 37.64477775 -121.7712618 37.64477775 -124 36 C-128.01171748 36 -131.23218933 39.32860897 -134 42 Z M-64.375 38 C-70.16765849 44.62018113 -71.79837349 51.3988839 -73 60 C-69.66177043 59.38550003 -66.97790508 58.65439171 -64 57 C-64 56.34 -64 55.68 -64 55 C-63.21625 54.773125 -62.4325 54.54625 -61.625 54.3125 C-58.78125 53.21875 -58.78125 53.21875 -57.6875 50.375 C-57.3471875 49.199375 -57.3471875 49.199375 -57 48 C-56.34 48 -55.68 48 -55 48 C-54.712197 44.94928825 -54.5527128 42.03939738 -55 39 C-58.55058427 35.91659787 -60.65843193 34.87025847 -64.375 38 Z " fill="#040404" transform="translate(848,89)"/>
<path d="M0 0 C0 0.66 0 1.32 0 2 C0.680625 2.165 1.36125 2.33 2.0625 2.5 C6.75155797 4.89441258 10.63589869 9.27179739 13 14 C13.31674515 17.05478644 13.32426943 20.11830028 13.375 23.1875 C13.43107422 24.44530273 13.43107422 24.44530273 13.48828125 25.72851562 C13.57889238 32.17700776 12.08730833 35.05121284 8 40 C7.67 40.99 7.34 41.98 7 43 C5.34051852 44.01187895 3.67419438 45.0126546 2 46 C2 46.66 2 47.32 2 48 C3.155 48.474375 4.31 48.94875 5.5 49.4375 C12.13991463 52.78694184 17.33295449 58.4006134 20 65.375 C22.24594932 73.76084974 21.96890296 83.19369388 18 91 C10.44482484 101.36737925 2.48446132 106.48426757 -9.8125 109.421875 C-11.96122763 109.79357433 -11.96122763 109.79357433 -13 111 C-22.33808164 112.12465947 -30.79940336 112.16859817 -40 110 C-41.5778125 109.814375 -41.5778125 109.814375 -43.1875 109.625 C-47.66576111 108.62983086 -52.63409305 107.08776283 -55.234375 103.11328125 C-56 101 -56 101 -56 97 C-56.66 97 -57.32 97 -58 97 C-58.11588758 89.13252106 -57.8883303 81.41542171 -57.12109375 73.58203125 C-56.78987632 71.01306074 -56.78987632 71.01306074 -58 69 C-57.67 68.34 -57.34 67.68 -57 67 C-56.17052056 61.37797269 -55.96968193 55.79780756 -56.125 50.125 C-56.06504818 25.21501996 -56.06504818 25.21501996 -50.4453125 19.3203125 C-44.42198663 16.11706795 -38.72325314 15.32767469 -32 16 C-28.27385004 23.45229992 -31.59181049 35.20466521 -33 43 C-29.37 43 -25.74 43 -22 43 C-22 42.34 -22 41.68 -22 41 C-21.38511719 40.79246094 -20.77023438 40.58492187 -20.13671875 40.37109375 C-15.79006968 38.71423709 -13.48980041 37.7718067 -10.9375 33.75 C-9.4960439 27.98417561 -9.54667578 22.81329687 -11 17 C-11.66 17 -12.32 17 -13 17 C-13 16.34 -13 15.68 -13 15 C-24.40111482 9.04032634 -35.8082796 8.55689659 -48.11328125 12.03125 C-56.47299592 14.83667522 -63.18126219 18.35446462 -68 26 C-69.6116802 31.01411617 -68.94716662 34.59665443 -66.96875 39.33203125 C-65.70057106 41.51554902 -64.42047458 42.33228287 -62 43 C-61.37027011 48.16378512 -62.71427636 50.61276956 -65.7109375 54.58203125 C-67.44383044 56.48821348 -68.61617877 56.95789012 -71.171875 57.23828125 C-76.99751765 57.40598914 -80.4923351 57.07836348 -85 53 C-91.03546984 45.00708049 -91.28997489 35.69966043 -90 26 C-88.56839126 22.15447868 -86.86873852 18.9579221 -84 16 C-83.34 16 -82.68 16 -82 16 C-81.67 14.68 -81.34 13.36 -81 12 C-80.34 12 -79.68 12 -79 12 C-78.34 10.68 -77.68 9.36 -77 8 C-76.34 8 -75.68 8 -75 8 C-74.44957031 7.40316406 -73.89914063 6.80632812 -73.33203125 6.19140625 C-70.43221969 3.4664577 -67.36858906 2.25747756 -63.6875 0.9375 C-62.98544434 0.68073486 -62.28338867 0.42396973 -61.56005859 0.15942383 C-54.49531315 -2.33071311 -47.40231281 -3.8321177 -40 -5 C-39.17757812 -5.1546875 -38.35515625 -5.309375 -37.5078125 -5.46875 C-25.29705196 -7.32782773 -11.1323264 -5.15339155 0 0 Z M-34 59 C-36.16017021 63.32034042 -35.49536574 68.99531745 -35.6875 73.75 C-35.74744141 74.93078125 -35.80738281 76.1115625 -35.86914062 77.328125 C-35.91619141 78.4728125 -35.96324219 79.6175 -36.01171875 80.796875 C-36.05772217 81.84198242 -36.10372559 82.88708984 -36.15112305 83.96386719 C-35.9826372 87.34882682 -35.37152875 89.9020773 -34 93 C-28.26427293 95.52371991 -22.24770686 96.25655325 -16.375 93.984375 C-10.5866919 91.295375 -10.5866919 91.295375 -6 87 C-6 85.68 -6 84.36 -6 83 C-5.34 83 -4.68 83 -4 83 C-2.28274366 75.91631759 -2.56075565 70.50999824 -6 64 C-7.792191 61.53827847 -7.792191 61.53827847 -10 60 C-11.32 60 -12.64 60 -14 60 C-14 59.34 -14 58.68 -14 58 C-20.99076906 56.25230773 -27.30259997 56.5397306 -34 59 Z " fill="#040403" transform="translate(152,81)"/>
<path d="M0 0 C0 0.66 0 1.32 0 2 C0.99 2.33 1.98 2.66 3 3 C6.61900643 7.60600818 9.19788154 12.22705858 8.8828125 18.234375 C8.09749759 23.01037178 6.62397251 26.696379 2.99609375 29.98046875 C-1.05476692 32.04949935 -5.5886301 31.42386828 -10 31 C-10 30.34 -10 29.68 -10 29 C-10.99 28.67 -11.98 28.34 -13 28 C-12.9071875 26.2365625 -12.9071875 26.2365625 -12.8125 24.4375 C-12.8125 19.91130018 -13.85239763 16.97704143 -16 13 C-19.61448667 10.59034222 -22.72255596 9.91180528 -27 10 C-30.11026528 10.75108573 -33.0414263 11.78780661 -36 13 C-36 13.99 -36 14.98 -36 16 C-36.66 16 -37.32 16 -38 16 C-38.31378312 21.22971874 -37.90940049 24.58573719 -35 29 C-32.71126384 30.57378316 -32.71126384 30.57378316 -30 32 C-28.83726266 32.98029378 -27.69255432 33.98220274 -26.5625 35 C-23.59488717 37.61618499 -20.6433107 39.40049774 -17 41 C-17 41.66 -17 42.32 -17 43 C-16.2884375 43.26167969 -15.576875 43.52335937 -14.84375 43.79296875 C-7.1856168 47.04346759 1.67835118 52.02503824 5.3125 59.8125 C5.539375 60.534375 5.76625 61.25625 6 62 C6.66 62 7.32 62 8 62 C12.17498388 70.34996777 12.74682205 80.59576927 9.875 89.48046875 C8.69381552 92.07437671 7.45349957 94.54981501 6 97 C5.34 97 4.68 97 4 97 C3.731875 97.5775 3.46375 98.155 3.1875 98.75 C-0.36317097 105.4775871 -4.99505249 107.48690203 -12 110 C-24.22095776 113.56387707 -38.41460906 115.20869638 -50.09375 109.0546875 C-50.7228125 108.70664063 -51.351875 108.35859375 -52 108 C-53.34758983 107.40162989 -54.70145598 106.81710168 -56.0625 106.25 C-57.031875 105.8375 -58.00125 105.425 -59 105 C-59 104.34 -59 103.68 -59 103 C-59.598125 102.731875 -60.19625 102.46375 -60.8125 102.1875 C-65.4394736 99.67571433 -66.91978759 96.55248788 -68.42578125 91.66796875 C-69.77678216 85.39086927 -69.56670217 79.34236897 -68.0625 73.125 C-65.22557158 68.8266236 -61.59939784 66.27470219 -57 64 C-56.01 64 -55.02 64 -54 64 C-54 63.34 -54 62.68 -54 62 C-52.58249437 62.11509661 -51.16598831 62.24253658 -49.75 62.375 C-48.96109375 62.44460937 -48.1721875 62.51421875 -47.359375 62.5859375 C-44.86999076 63.02281619 -43.14262448 63.66847844 -41 65 C-39.50454858 67.70605494 -38.87657152 69.2388577 -39.375 72.3125 C-39.58125 72.869375 -39.7875 73.42625 -40 74 C-40.66 74 -41.32 74 -42 74 C-45.26860187 78.23061659 -45.26860187 78.23061659 -45.7734375 83.328125 C-44.2887469 88.25533995 -42.53470724 91.27917566 -38 94 C-31.19511782 96.26829406 -25.28928618 95.04005407 -19 92 C-15.87525373 90.36526484 -15.87525373 90.36526484 -15.3125 87.875 C-15.209375 87.25625 -15.10625 86.6375 -15 86 C-14.34 86 -13.68 86 -13 86 C-13.33 85.34 -13.66 84.68 -14 84 C-14.17748134 82.56606347 -14.31891147 81.1275036 -14.4375 79.6875 C-14.81286528 76.14996656 -15.19640907 73.13255267 -17 70 C-18.32527519 69.31745484 -19.66001052 68.65318483 -21 68 C-23.07630957 66.49756486 -25.08191189 64.92226111 -27.09765625 63.33984375 C-29.0629958 61.81914723 -29.0629958 61.81914723 -32 61 C-32 60.34 -32 59.68 -32 59 C-32.60328125 58.82984375 -33.2065625 58.6596875 -33.828125 58.484375 C-34.62734375 58.24203125 -35.4265625 57.9996875 -36.25 57.75 C-37.03890625 57.51796875 -37.8278125 57.2859375 -38.640625 57.046875 C-41.44955611 55.80052808 -42.89542355 54.22599432 -45 52 C-47.62181854 49.89460026 -50.28366785 47.84921393 -52.953125 45.8046875 C-53.62859375 45.20914063 -54.3040625 44.61359375 -55 44 C-55 43.34 -55 42.68 -55 42 C-55.66 42 -56.32 42 -57 42 C-61.33611075 30.73385511 -62.55368167 22.91893675 -58.16796875 11.54296875 C-55.69056927 6.14903209 -53.8090785 3.45554378 -48.4375 0.6875 C-47.46683594 0.17574219 -46.49617187 -0.33601563 -45.49609375 -0.86328125 C-43 -2 -43 -2 -41 -2 C-41 -2.66 -41 -3.32 -41 -4 C-27.07276124 -7.71188522 -12.75166096 -6.77588259 0 0 Z " fill="#040404" transform="translate(569,81)"/>
<path d="M0 0 C1.32 0.33 2.64 0.66 4 1 C4.99 4.63 5.98 8.26 7 12 C8.32 11.67 9.64 11.34 11 11 C13.75332474 11.43711542 16.30931953 12.23764053 19 13 C19 14.32 19 15.64 19 17 C17.43359375 18.28125 17.43359375 18.28125 15.4375 19.5 C13.41022333 20.93363387 13.41022333 20.93363387 12 23 C11.67305877 27.12367805 12.22021358 30.95035289 13 35 C11.515 35.495 11.515 35.495 10 36 C10 35.34 10 34.68 10 34 C5.18585895 31.93679669 1.14065113 30.28644962 -4 32 C-4 32.66 -4 33.32 -4 34 C-5.98 34.66 -7.96 35.32 -10 36 C-11.05864699 32.50646495 -11.01452857 31.04282105 -9.8125 27.5 C-8.57799225 23.99117585 -8.57799225 23.99117585 -10.625 21.1875 C-12.72847743 19.25008658 -14.35996844 18.03715526 -17 17 C-17 15.35 -17 13.7 -17 12 C-11.06 11.505 -11.06 11.505 -5 11 C-4.54625 9.55625 -4.0925 8.1125 -3.625 6.625 C-2.69239369 3.65761628 -2.22825644 2.22825644 0 0 Z " fill="#050505" transform="translate(478,53)"/>
<path d="M0 0 C3.4534476 2.32164544 4.53195439 5.37029901 5.6484375 9.2578125 C6.35993538 13.21803654 6.21008438 15.50343693 4.625 19.25 C1.267608 22.76726781 -2.41893525 25.30424675 -7 27 C-7.99 26.67 -8.98 26.34 -10 26 C-10 25.34 -10 24.68 -10 24 C-11.0828125 23.690625 -11.0828125 23.690625 -12.1875 23.375 C-15.7722714 21.62244509 -18.2753845 19.60185184 -20 16 C-20.45613538 10.81830213 -19.32228195 6.06056683 -16 2 C-11.13720379 -1.06662824 -5.52499326 -0.96611904 0 0 Z " fill="#040404" transform="translate(202,81)"/>
<path d="M0 0 C0.99 0.33 1.98 0.66 3 1 C3.33 3.97 3.66 6.94 4 10 C4.99 9.34 5.98 8.68 7 8 C9.01136276 10.55991624 10.62845496 13.04590299 12 16 C10.875 17.5 10.875 17.5 9 19 C5.8125 19.1875 5.8125 19.1875 3 19 C3 20.65 3 22.3 3 24 C3.66 24.33 4.32 24.66 5 25 C4.01 26.32 3.02 27.64 2 29 C-0.31 28.67 -2.62 28.34 -5 28 C-5.33 26.68 -5.66 25.36 -6 24 C-9.3 24 -12.6 24 -16 24 C-15.25 18.25 -15.25 18.25 -13 16 C-13.34444881 13.52733235 -13.34444881 13.52733235 -14 11 C-14 9 -14 7 -14 5 C-11.36 5.33 -8.72 5.66 -6 6 C-5.67 5.34 -5.34 4.68 -5 4 C-4.01 3.34 -3.02 2.68 -2 2 C-1.34 1.34 -0.68 0.68 0 0 Z M-12 12 C-11 14 -11 14 -11 14 Z M-6 22 C-6 22.66 -6 23.32 -6 24 C-5.34 23.67 -4.68 23.34 -4 23 C-4.66 22.67 -5.32 22.34 -6 22 Z " fill="#0A0A0A" transform="translate(884,73)"/>
<path d="M0 0 C0.66 0.33 1.32 0.66 2 1 C2.59772099 3.9829661 2.74337815 6.96330805 3 10 C6.63 10.99 10.26 11.98 14 13 C14 13.66 14 14.32 14 15 C12.25 16.2890625 12.25 16.2890625 10 17.625 C9.2575 18.07101563 8.515 18.51703125 7.75 18.9765625 C6.88375 19.48316406 6.88375 19.48316406 6 20 C6.185625 20.928125 6.37125 21.85625 6.5625 22.8125 C7 26 7 26 6 29 C3.03 28.34 0.06 27.68 -3 27 C-2.34 26.34 -1.68 25.68 -1 25 C-1.86625 25.2165625 -1.86625 25.2165625 -2.75 25.4375 C-3.4925 25.623125 -4.235 25.80875 -5 26 C-5.680625 26.20625 -6.36125 26.4125 -7.0625 26.625 C-9 27 -9 27 -12 26 C-11.84402344 25.37351562 -11.68804688 24.74703125 -11.52734375 24.1015625 C-11.33269531 23.28429687 -11.13804687 22.46703125 -10.9375 21.625 C-10.74027344 20.81289062 -10.54304687 20.00078125 -10.33984375 19.1640625 C-9.77890681 16.95838716 -9.77890681 16.95838716 -11 15 C-11.99 15 -12.98 15 -14 15 C-14 13.02 -14 11.04 -14 9 C-13.34 9 -12.68 9 -12 9 C-12 8.01 -12 7.02 -12 6 C-8.125 6.875 -8.125 6.875 -7 8 C-3.62642766 5.78972846 -1.91135386 3.53600465 0 0 Z " fill="#060606" transform="translate(756,71)"/>
<path d="M0 0 C0.99 0 1.98 0 3 0 C3.350625 0.969375 3.70125 1.93875 4.0625 2.9375 C5.75003667 6.39434602 5.75003667 6.39434602 9.6875 6.875 C10.780625 6.91625 11.87375 6.9575 13 7 C12.42655063 9.86724686 12.1385485 10.8614515 10 13 C9.97624074 14.9931567 9.97624074 14.9931567 10.375 17.125 C10.58125 18.40375 10.7875 19.6825 11 21 C7.79937313 22.60031344 5.27728194 21.03173691 2 20 C1.34 20.99 0.68 21.98 0 23 C-2.625 23.1875 -2.625 23.1875 -5 23 C-5.84454356 19.62182575 -6.10844919 17.32534757 -5 14 C-5.66 13.54625 -6.32 13.0925 -7 12.625 C-7.66 12.08875 -8.32 11.5525 -9 11 C-9 10.34 -9 9.68 -9 9 C-5.535 8.505 -5.535 8.505 -2 8 C-1.34 5.36 -0.68 2.72 0 0 Z " fill="#050505" transform="translate(232,61)"/>
<path d="M0 0 C0.66 1.98 1.32 3.96 2 6 C4.64 6.33 7.28 6.66 10 7 C9.67 8.98 9.34 10.96 9 13 C8.01 13.33 7.02 13.66 6 14 C6.33 15.98 6.66 17.96 7 20 C3.61981469 21.04005702 0.5219721 21.08004482 -3 21 C-3 20.34 -3 19.68 -3 19 C-4.98 19.33 -6.96 19.66 -9 20 C-8.505 15.545 -8.505 15.545 -8 11 C-8.66 11 -9.32 11 -10 11 C-10.66 9.68 -11.32 8.36 -12 7 C-9.69 6.34 -7.38 5.68 -5 5 C-4.814375 4.0409375 -4.814375 4.0409375 -4.625 3.0625 C-4.41875 2.381875 -4.2125 1.70125 -4 1 C-2 0 -2 0 0 0 Z " fill="#090909" transform="translate(60,59)"/>
<path d="M0 0 C2 1.4375 2 1.4375 3 4 C3.32893855 7.03594102 3.44978469 9.97417573 3 13 C1 15 1 15 -1.6015625 15.1953125 C-2.59929688 15.17210937 -3.59703125 15.14890625 -4.625 15.125 C-6.12933594 15.09792969 -6.12933594 15.09792969 -7.6640625 15.0703125 C-8.43492187 15.04710937 -9.20578125 15.02390625 -10 15 C-12.40047679 10.7079475 -12.46459778 7.87827664 -12 3 C-8.94098929 -1.07868094 -4.66001218 -0.51777913 0 0 Z " fill="#050505" transform="translate(905,119)"/>
<path d="M0 0 C2.58398105 2.39941097 2.98786508 3.92584218 3.5625 7.4375 C3 11 3 11 0.4375 14.0625 C-3 16 -3 16 -6.75 15.5 C-10 14 -10 14 -12 11 C-12.39958487 7.57982443 -12.5635348 4.12706959 -11 1 C-3.42857143 -1.71428571 -3.42857143 -1.71428571 0 0 Z " fill="#060606" transform="translate(75,163)"/>
<path d="M0 0 C1.58867866 1.58867866 1.20794039 3.24689516 1.25 5.4375 C1.28867187 6.64212891 1.28867187 6.64212891 1.328125 7.87109375 C1.21984375 8.57363281 1.1115625 9.27617188 1 10 C-2.6441774 12.4294516 -4.71241272 12.16179575 -9 12 C-11.48887372 7.31506124 -10.85687773 4.0555786 -10 -1 C-6.04519588 -2.31826804 -3.88608399 -1.29536133 0 0 Z " fill="#060606" transform="translate(807,72)"/>
<path d="M0 0 C5.45454545 0.45454545 5.45454545 0.45454545 8 3 C8.75 5.9375 8.75 5.9375 9 9 C8.01 10.485 8.01 10.485 7 12 C0.5899705 11.51622419 0.5899705 11.51622419 -2 9.25 C-3.28133396 6.36699859 -3.01050518 4.95378439 -2 2 C-1.34 1.34 -0.68 0.68 0 0 Z " fill="#0A0A0A" transform="translate(41,143)"/>
<path d="M0 0 C2.31 0 4.62 0 7 0 C8.50662097 3.01324195 8.17770373 5.68286377 8 9 C6 11 6 11 3.5625 11.375 C1 11 1 11 -0.875 9.3125 C-2.29565384 6.3922671 -1.96293839 5.0493049 -1 2 C-0.67 1.34 -0.34 0.68 0 0 Z " fill="#050505" transform="translate(482,193)"/>
<path d="M0 0 C1.60725635 3.21451269 1.05748185 6.43612536 1 10 C-1.60144251 10.96349722 -2.94670665 11.0123938 -5.6875 10.375 C-8 9 -8 9 -9 6.625 C-9 4 -9 4 -7.75 1.75 C-5.01968081 -0.98031919 -3.65243292 -1.21747764 0 0 Z " fill="#030303" transform="translate(437,86)"/>
<path d="M0 0 C4.455 0.99 4.455 0.99 9 2 C9 3.32 9 4.64 9 6 C7.25 7.703125 7.25 7.703125 5 9.25 C4.2575 9.77078125 3.515 10.2915625 2.75 10.828125 C2.1725 11.21484375 1.595 11.6015625 1 12 C0.34 11.67 -0.32 11.34 -1 11 C-0.4740625 10.1028125 -0.4740625 10.1028125 0.0625 9.1875 C1.33304698 6.89186786 1.33304698 6.89186786 0 4 C0.66 3.67 1.32 3.34 2 3 C1.34 2.67 0.68 2.34 0 2 C0 1.34 0 0.68 0 0 Z " fill="#0C0C08" transform="translate(488,64)"/>
<path d="M0 0 C1.33333333 0 2.66666667 0 4 0 C4.33 2.97 4.66 5.94 5 9 C3.35 9.33 1.7 9.66 0 10 C-1.125 2.25 -1.125 2.25 0 0 Z " fill="#080806" transform="translate(643,152)"/>
<path d="M0 0 C0.99 0.66 1.98 1.32 3 2 C0.88229834 4.32947183 -1.03335588 5.88750845 -4 7 C-4.99 6.67 -5.98 6.34 -7 6 C-6.67 4.35 -6.34 2.7 -6 1 C-4.7934375 1.0309375 -4.7934375 1.0309375 -3.5625 1.0625 C-1.06645115 1.29633621 -1.06645115 1.29633621 0 0 Z " fill="#141414" transform="translate(413,152)"/>
<path d="M0 0 C-1.98 0.99 -1.98 0.99 -4 2 C-4 3.65 -4 5.3 -4 7 C-4.99 7.495 -4.99 7.495 -6 8 C-6.66 7.67 -7.32 7.34 -8 7 C-7.649375 6.401875 -7.29875 5.80375 -6.9375 5.1875 C-5.66695302 2.89186786 -5.66695302 2.89186786 -7 0 C-4.3333581 -1.33332095 -2.83319697 -0.67102033 0 0 Z " fill="#161615" transform="translate(495,68)"/>
<path d="M0 0 C0.66 0.33 1.32 0.66 2 1 C1.8125 2.8125 1.8125 2.8125 1 5 C-1.4375 6.8125 -1.4375 6.8125 -4 8 C-4.66 7.67 -5.32 7.34 -6 7 C-5.34 5.68 -4.68 4.36 -4 3 C-3.34 3 -2.68 3 -2 3 C-1.34 2.01 -0.68 1.02 0 0 Z " fill="#0A0A09" transform="translate(86,98)"/>
<path d="M0 0 C2.875 0.3125 2.875 0.3125 6 1 C6.66 1.99 7.32 2.98 8 4 C5.69 4.33 3.38 4.66 1 5 C0.67 3.35 0.34 1.7 0 0 Z " fill="#030303" transform="translate(870,78)"/>
<path d="M0 0 C2.875 -0.125 2.875 -0.125 6 0 C6.66 0.66 7.32 1.32 8 2 C6.68 3.32 5.36 4.64 4 6 C3.67 5.34 3.34 4.68 3 4 C3.33 3.34 3.66 2.68 4 2 C3.34 2 2.68 2 2 2 C1.67 2.99 1.34 3.98 1 5 C0 2 0 2 0 0 Z " fill="#0D0D0D" transform="translate(427,178)"/>
<path d="M0 0 C0.66 0 1.32 0 2 0 C2.33 0.66 2.66 1.32 3 2 C3.99 2.33 4.98 2.66 6 3 C5 6 5 6 3 7 C1.68 6.01 0.36 5.02 -1 4 C-0.67 2.68 -0.34 1.36 0 0 Z " fill="#151512" transform="translate(483,80)"/>
<path d="M0 0 C0.66 0 1.32 0 2 0 C1.835 0.763125 1.67 1.52625 1.5 2.3125 C0.90854604 5.03596236 0.90854604 5.03596236 1 8 C0.01 8.33 -0.98 8.66 -2 9 C-3 6 -3 6 -1.5625 2.8125 C-1.046875 1.884375 -0.53125 0.95625 0 0 Z " fill="#141414" transform="translate(875,143)"/>
<path d="M0 0 C2.64 0 5.28 0 8 0 C7.67 1.65 7.34 3.3 7 5 C3.63061102 3.87687034 2.46825907 2.46825907 0 0 Z " fill="#0B0B0A" transform="translate(843,121)"/>
<path d="M0 0 C2 1.8125 2 1.8125 4 4 C4 4.99 4 5.98 4 7 C3.01 7.33 2.02 7.66 1 8 C1 6.68 1 5.36 1 4 C0.34 4 -0.32 4 -1 4 C-0.67 2.68 -0.34 1.36 0 0 Z " fill="#0E0E0E" transform="translate(825,171)"/>
<path d="M0 0 C1.98 0 3.96 0 6 0 C5.01 0.33 4.02 0.66 3 1 C4.32 1.99 5.64 2.98 7 4 C4.36 4 1.72 4 -1 4 C-0.67 2.68 -0.34 1.36 0 0 Z " fill="#101010" transform="translate(134,77)"/>
<path d="M0 0 C1.32 0 2.64 0 4 0 C4.33 0.99 4.66 1.98 5 3 C2.69 3.66 0.38 4.32 -2 5 C-2 4.01 -2 3.02 -2 2 C-1.34 2 -0.68 2 0 2 C0 1.34 0 0.68 0 0 Z " fill="#0C0C0C" transform="translate(345,178)"/>
<path d="M0 0 C2.97 0.495 2.97 0.495 6 1 C3.82575883 3.50037734 2.26954202 4.43628586 -1 5 C-0.67 3.35 -0.34 1.7 0 0 Z " fill="#141414" transform="translate(728,152)"/>
<path d="M0 0 C2 1 2 1 3 3 C0.77810176 5.22189824 -1.08482708 5.92598892 -4 7 C-2.92598892 4.08482708 -2.22189824 2.22189824 0 0 Z " fill="#0E0E06" transform="translate(867,163)"/>
<path d="M0 0 C0.99 0 1.98 0 3 0 C3.33 0.99 3.66 1.98 4 3 C3.01 3.99 2.02 4.98 1 6 C-0.0625 4.125 -0.0625 4.125 -1 2 C-0.67 1.34 -0.34 0.68 0 0 Z " fill="#0F0F0D" transform="translate(643,152)"/>
<path d="M0 0 C1.65 0 3.3 0 5 0 C3.6875 2.5 3.6875 2.5 2 5 C1.01 5 0.02 5 -1 5 C-0.67 3.35 -0.34 1.7 0 0 Z " fill="#101010" transform="translate(884,97)"/>
<path d="M0 0 C2 1 2 1 2 1 Z " fill="#7F7F7F" transform="translate(613,168)"/>
<path d="" fill="#000000" transform="translate(0,0)"/>
<path d="" fill="#000000" transform="translate(0,0)"/>
<path d="" fill="#000000" transform="translate(0,0)"/>
</svg>
